# xmcd
#
# Track frame offsets:
#	150
#	20233
#	37389
#	55968
#	74572
#	87610
#	105465
#	127858
#	144215
#
# Disc length: 2199 seconds
#
# Revision: 1
# Processed by: cddbd v1.5.1PL0 Copyright (c) Steve Scherf et al.
# Submitted via: audiograbber 1.82.01
#
DISCID=84089509
DTITLE=Texas Band - 1000 mil
DYEAR=1990
DGENRE=
TTITLE0=Dobrze Wiem
TTITLE1=Gdy Ty P³aczesz
TTITLE2=Zanim Pójdê Spaæ
TTITLE3=Pi¹ta Piêæ
TTITLE4=Piosenka dla Moniki
TTITLE5=Dla przyjació³
TTITLE6=Czy Ty Panie wiesz
TTITLE7=Knajpa Honky Tonk
TTITLE8=1000 mil
EXTD=
EXTT0=
EXTT1=
EXTT2=
EXTT3=
EXTT4=
EXTT5=
EXTT6=
EXTT7=
EXTT8=
PLAYORDER=
